<?xml version="1.0" encoding="UTF-8" standalone="no"?>
<!DOCTYPE svg PUBLIC "-//W3C//DTD SVG 1.1//EN" "http://www.w3.org/Graphics/SVG/1.1/DTD/svg11.dtd">
<svg xmlns="http://www.w3.org/2000/svg" xmlns:xlink="http://www.w3.org/1999/xlink" version="1.1" width="266.782pt" height="198.112pt" viewBox="0 0 266.782 198.112">
<symbol id="font_0_1">
<path d="M 0 0 L .069000009 0 L .069000009 1.7300001 L .33300004 1.7300001 L .33300004 1.7990002 L 0 1.7990002 L 0 0 Z "/>
</symbol>
<symbol id="font_0_3">
<path d="M 0 0 L .33300004 0 L .33300004 .069000009 L .069000009 .069000009 L .069000009 1.799 L 0 1.799 L 0 0 Z "/>
</symbol>
<use xlink:href="#font_0_1" transform="matrix(9.9626,0,0,-9.9626,88.83982,21.25317)"/>
<use xlink:href="#font_0_3" transform="matrix(9.9626,0,0,-9.9626,88.83982,39.17621)"/>
<symbol id="font_1_3">
<path d="M .205 .64000007 C .205 .66400006 .205 .666 .18200003 .666 C .120000008 .60200008 .032000007 .60200008 0 .60200008 L 0 .57100006 C .020000004 .57100006 .07900001 .57100006 .13100001 .597 L .13100001 .079 C .13100001 .043 .128 .031000002 .038000004 .031000002 L .0060000049 .031000002 L .0060000049 0 C .04100001 .003 .128 .003 .168 .003 C .20800002 .003 .29500003 .003 .33000005 0 L .33000005 .031000002 L .29800005 .031000002 C .20800002 .031000002 .205 .042000005 .205 .079 L .205 .64000007 Z "/>
</symbol>
<symbol id="font_1_4">
<path d="M .07700001 .07700001 L .18300002 .18 C .33900003 .31800003 .39900003 .372 .39900003 .47200004 C .39900003 .586 .30900003 .666 .18700002 .666 C .074 .666 0 .574 0 .485 C 0 .42900003 .05 .42900003 .053000008 .42900003 C .07000001 .42900003 .105000007 .441 .105000007 .48200003 C .105000007 .508 .08700001 .53400006 .052000006 .53400006 C .044000005 .53400006 .042000008 .53400006 .039 .53300008 C .062000004 .59800007 .11600001 .63500007 .17400001 .63500007 C .26500003 .63500007 .308 .554 .308 .47200004 C .308 .39200003 .25800003 .31300003 .20300003 .25100003 L .011000004 .037 C 0 .026 0 .024 0 0 L .37100003 0 L .39900003 .17400001 L .374 .17400001 C .36900003 .14400001 .36200003 .1 .352 .085 C .345 .07700001 .279 .07700001 .257 .07700001 L .07700001 .07700001 Z "/>
</symbol>
<use xlink:href="#font_1_3" transform="matrix(9.9626,0,0,-9.9626,101.976688,11.688995)"/>
<use xlink:href="#font_1_4" transform="matrix(9.9626,0,0,-9.9626,124.28294,11.688995)"/>
<symbol id="font_2_1">
<path d="M .57600006 0 C .59300008 0 .611 0 .611 .019999996 C .611 .040000008 .59300008 .040000008 .57600006 .040000008 L .035000005 .040000008 C .018 .040000008 0 .040000008 0 .019999996 C 0 0 .018 0 .035000005 0 L .57600006 0 Z "/>
</symbol>
<use xlink:href="#font_2_1" transform="matrix(9.9626,0,0,-9.9626,143.4279,9.397597)"/>
<symbol id="font_1_5">
<path d="M .24800003 .37400005 C .33 .40100003 .388 .47100006 .388 .55 C .388 .632 .3 .688 .204 .688 C .10300001 .688 .027000003 .628 .027000003 .55200007 C .027000003 .519 .049000004 .5 .078 .5 C .109000008 .5 .12900001 .522 .12900001 .55100008 C .12900001 .6010001 .082 .6010001 .067 .6010001 C .098 .65000006 .164 .66300007 .20000002 .66300007 C .24100003 .66300007 .29600004 .64100006 .29600004 .55100008 C .29600004 .53900006 .29400004 .48100005 .268 .43700005 C .238 .38900004 .204 .38600005 .17900002 .38500003 C .171 .38400004 .14700002 .38200004 .14000002 .38200004 C .132 .38100005 .125 .38000003 .125 .37000004 C .125 .35900004 .132 .35900004 .14900002 .35900004 L .19300002 .35900004 C .275 .35900004 .312 .29100005 .312 .193 C .312 .057000005 .24300003 .028 .199 .028 C .15600002 .028 .081 .045 .046000005 .104 C .081 .09900001 .11200001 .12100001 .11200001 .15900001 C .11200001 .19500001 .085 .215 .056 .215 C .031999999 .215 0 .201 0 .157 C 0 .06600001 .093 0 .20200002 0 C .32400004 0 .41500003 .091000009 .41500003 .193 C .41500003 .27500005 .35200004 .35300005 .24800003 .37400005 Z "/>
</symbol>
<use xlink:href="#font_1_5" transform="matrix(9.9626,0,0,-9.9626,150.76844,11.908173)"/>
<path transform="matrix(1,0,0,-1,160.512,15.276001)" stroke-width="1" stroke-linecap="butt" stroke-miterlimit="10" stroke-linejoin="miter" fill="none" stroke="#000000" d="M 0 0 L 0 11.955 "/>
<use xlink:href="#font_1_3" transform="matrix(9.9626,0,0,-9.9626,166.57869,11.688995)"/>
<use xlink:href="#font_2_1" transform="matrix(9.9626,0,0,-9.9626,98.04291,21.353592)"/>
<symbol id="font_1_6">
<path d="M .39900003 .223 C .39900003 .34200005 .317 .44200004 .209 .44200004 C .16100002 .44200004 .118000019 .42600004 .082 .39100004 L .082 .586 C .10200001 .58000007 .135 .573 .16700001 .573 C .29 .573 .36 .66400006 .36 .67700007 C .36 .683 .357 .688 .35 .688 C .349 .688 .347 .688 .342 .68500009 C .322 .67600008 .273 .656 .20600002 .656 C .16600001 .656 .120000008 .66300007 .073 .6840001 C .065 .68700006 .06300001 .68700006 .061000009 .68700006 C .051000004 .68700006 .051000004 .679 .051000004 .66300007 L .051000004 .36700005 C .051000004 .34900005 .051000004 .34100003 .065 .34100003 C .07200001 .34100003 .074 .34400005 .07800001 .35000003 C .08900002 .36600004 .12600002 .42000006 .207 .42000006 C .259 .42000006 .284 .37400005 .292 .35600005 C .308 .31900005 .31 .28000004 .31 .23 C .31 .19500001 .31 .135 .286 .093 C .262 .054000006 .22500001 .028 .17900002 .028 C .106000009 .028 .049000008 .08100001 .032 .14000002 C .035 .13900002 .038000008 .13800001 .049000008 .13800001 C .082 .13800001 .09900001 .163 .09900001 .187 C .09900001 .21100001 .082 .23600002 .049000008 .23600002 C .035 .23600002 0 .22900002 0 .18300002 C 0 .097 .069000009 0 .18100001 0 C .297 0 .39900003 .096 .39900003 .223 Z "/>
</symbol>
<use xlink:href="#font_1_6" transform="matrix(9.9626,0,0,-9.9626,105.46214,23.864167)"/>
<use xlink:href="#font_1_4" transform="matrix(9.9626,0,0,-9.9626,124.281497,23.644989)"/>
<use xlink:href="#font_2_1" transform="matrix(9.9626,0,0,-9.9626,143.4279,21.353592)"/>
<use xlink:href="#font_1_5" transform="matrix(9.9626,0,0,-9.9626,150.76844,23.864167)"/>
<path transform="matrix(1,0,0,-1,160.512,27.231003)" stroke-width="1" stroke-linecap="butt" stroke-miterlimit="10" stroke-linejoin="miter" fill="none" stroke="#000000" d="M 0 0 L 0 11.955 "/>
<use xlink:href="#font_1_3" transform="matrix(9.9626,0,0,-9.9626,166.57869,23.645005)"/>
<use xlink:href="#font_1_3" transform="matrix(9.9626,0,0,-9.9626,101.976688,35.600008)"/>
<use xlink:href="#font_2_1" transform="matrix(9.9626,0,0,-9.9626,120.73491,33.30861)"/>
<use xlink:href="#font_1_4" transform="matrix(9.9626,0,0,-9.9626,128.15514,35.600008)"/>
<use xlink:href="#font_1_3" transform="matrix(9.9626,0,0,-9.9626,147.36305,35.600008)"/>
<path transform="matrix(1,0,0,-1,160.512,39.186006)" stroke-width="1" stroke-linecap="butt" stroke-miterlimit="10" stroke-linejoin="miter" fill="none" stroke="#000000" d="M 0 0 L 0 11.955 "/>
<use xlink:href="#font_1_3" transform="matrix(9.9626,0,0,-9.9626,166.57869,35.600008)"/>
<symbol id="font_0_2">
<path d="M .26400004 0 L .333 0 L .333 1.7990002 L 0 1.7990002 L 0 1.7300001 L .26400004 1.7300001 L .26400004 0 Z "/>
</symbol>
<symbol id="font_0_4">
<path d="M .26400004 .069000009 L 0 .069000009 L 0 0 L .333 0 L .333 1.799 L .26400004 1.799 L .26400004 .069000009 Z "/>
</symbol>
<use xlink:href="#font_0_2" transform="matrix(9.9626,0,0,-9.9626,175.72473,21.253186)"/>
<use xlink:href="#font_0_4" transform="matrix(9.9626,0,0,-9.9626,175.72473,39.176225)"/>
<use xlink:href="#font_0_1" transform="matrix(9.9626,0,0,-9.9626,6.568822,92.11917)"/>
<use xlink:href="#font_0_3" transform="matrix(9.9626,0,0,-9.9626,6.568822,110.04221)"/>
<use xlink:href="#font_1_3" transform="matrix(9.9626,0,0,-9.9626,15.830686,82.555)"/>
<use xlink:href="#font_1_4" transform="matrix(9.9626,0,0,-9.9626,32.876699,82.555)"/>
<use xlink:href="#font_2_1" transform="matrix(9.9626,0,0,-9.9626,53.130914,80.2636)"/>
<use xlink:href="#font_1_5" transform="matrix(9.9626,0,0,-9.9626,60.470449,82.77418)"/>
<path transform="matrix(1,0,0,-1,72.70502,86.142)" stroke-width="1" stroke-linecap="butt" stroke-miterlimit="10" stroke-linejoin="miter" fill="none" stroke="#000000" d="M 0 0 L 0 11.955 "/>
<symbol id="font_1_2">
<path d="M .421 .34200005 C .421 .42200003 .416 .50200006 .381 .57600006 C .335 .67200008 .25300003 .688 .211 .688 C .15100001 .688 .07800001 .66200008 .037000006 .56900009 C .0050000029 .5 0 .42200003 0 .34200005 C 0 .26700003 .0040000008 .177 .045000007 .101 C .088 .020000002 .161 0 .21000001 0 C .264 0 .34 .021000002 .384 .116000007 C .416 .185 .421 .263 .421 .34200005 M .21000001 .022000002 C .171 .022000002 .112 .047000003 .094 .143 C .083000008 .20300001 .083000008 .29500003 .083000008 .35400004 C .083000008 .41800005 .083000008 .48400004 .091000009 .53800007 C .11 .65700009 .185 .66600009 .21000001 .66600009 C .243 .66600009 .30900003 .64800009 .328 .549 C .338 .49300004 .338 .41700004 .338 .35400004 C .338 .279 .338 .21100001 .32700003 .147 C .312 .052 .255 .022000002 .21000001 .022000002 Z "/>
</symbol>
<use xlink:href="#font_1_3" transform="matrix(9.9626,0,0,-9.9626,78.77169,82.555)"/>
<use xlink:href="#font_1_2" transform="matrix(9.9626,0,0,-9.9626,15.332556,94.73018)"/>
<use xlink:href="#font_1_3" transform="matrix(9.9626,0,0,-9.9626,30.774588,94.511)"/>
<use xlink:href="#font_1_4" transform="matrix(9.9626,0,0,-9.9626,35.367349,94.511)"/>
<use xlink:href="#font_2_1" transform="matrix(9.9626,0,0,-9.9626,50.63991,92.219608)"/>
<symbol id="font_1_8">
<path d="M .121 .47900004 C .075 .509 .071 .54300007 .071 .56000009 C .071 .62100008 .136 .66300007 .20700002 .66300007 C .28000004 .66300007 .344 .61100009 .344 .53900006 C .344 .48200003 .305 .43400005 .245 .39900003 L .121 .47900004 M .26700003 .38400004 C .33900003 .42100004 .388 .47300006 .388 .53900006 C .388 .63100007 .29900003 .688 .208 .688 C .108 .688 .027000003 .614 .027000003 .521 C .027000003 .503 .029 .45800004 .071 .41100005 C .082 .39900003 .11900001 .37400005 .144 .35700003 C .086 .32800005 0 .272 0 .17300001 C 0 .067 .102000009 0 .20700002 0 C .32000003 0 .41500003 .083000008 .41500003 .19000001 C .41500003 .22600001 .404 .27100004 .36600004 .31300003 C .34700004 .33400003 .33100004 .34400005 .26700003 .38400004 M .167 .34200005 L .29000003 .26400004 C .31800003 .245 .365 .215 .365 .154 C .365 .080000009 .29000003 .028 .208 .028 C .122 .028 .050000006 .09 .050000006 .17300001 C .050000006 .231 .082 .29500003 .167 .34200005 Z "/>
</symbol>
<use xlink:href="#font_1_3" transform="matrix(9.9626,0,0,-9.9626,58.44869,94.511)"/>
<use xlink:href="#font_1_8" transform="matrix(9.9626,0,0,-9.9626,62.961748,94.73018)"/>
<path transform="matrix(1,0,0,-1,72.70502,98.097)" stroke-width="1" stroke-linecap="butt" stroke-miterlimit="10" stroke-linejoin="miter" fill="none" stroke="#000000" d="M 0 0 L 0 11.955 "/>
<symbol id="font_1_7">
<path d="M .089999999 .35000003 L .089999999 .37400005 C .089999999 .62700006 .21400002 .66300007 .26500003 .66300007 C .28900004 .66300007 .33100004 .65700009 .35300002 .623 C .33800004 .623 .298 .623 .298 .57800009 C .298 .54700008 .32200004 .53200009 .344 .53200009 C .36 .53200009 .39000003 .54100009 .39000003 .58000007 C .39000003 .64000007 .34600003 .688 .263 .688 C .13499999 .688 0 .559 0 .33800004 C 0 .071 .116000007 0 .20900002 0 C .32000003 0 .41500003 .094000007 .41500003 .22600001 C .41500003 .35300005 .32600004 .44900004 .215 .44900004 C .14700002 .44900004 .11000001 .39800004 .089999999 .35000003 M .20900002 .028 C .146 .028 .116000007 .088 .11000001 .103 C .092 .15 .092 .23 .092 .24800001 C .092 .32600004 .124000009 .42600004 .21400002 .42600004 C .23000002 .42600004 .27600003 .42600004 .307 .36400003 C .32500003 .32700003 .32500003 .27600003 .32500003 .22700002 C .32500003 .179 .32500003 .12900001 .30800004 .093 C .27800004 .033000005 .23200003 .028 .20900002 .028 Z "/>
</symbol>
<use xlink:href="#font_1_7" transform="matrix(9.9626,0,0,-9.9626,78.303447,94.73018)"/>
<use xlink:href="#font_1_2" transform="matrix(9.9626,0,0,-9.9626,15.332556,106.68518)"/>
<use xlink:href="#font_1_2" transform="matrix(9.9626,0,0,-9.9626,32.76711,106.68518)"/>
<use xlink:href="#font_2_1" transform="matrix(9.9626,0,0,-9.9626,53.130914,104.17461)"/>
<use xlink:href="#font_1_4" transform="matrix(9.9626,0,0,-9.9626,60.550149,106.466)"/>
<path transform="matrix(1,0,0,-1,72.70502,110.052)" stroke-width="1" stroke-linecap="butt" stroke-miterlimit="10" stroke-linejoin="miter" fill="none" stroke="#000000" d="M 0 0 L 0 11.955 "/>
<use xlink:href="#font_1_4" transform="matrix(9.9626,0,0,-9.9626,78.38315,106.465999)"/>
<use xlink:href="#font_0_2" transform="matrix(9.9626,0,0,-9.9626,87.917758,92.11917)"/>
<use xlink:href="#font_0_4" transform="matrix(9.9626,0,0,-9.9626,87.917758,110.042209)"/>
<use xlink:href="#font_0_1" transform="matrix(9.9626,0,0,-9.9626,177.75382,92.11917)"/>
<use xlink:href="#font_0_3" transform="matrix(9.9626,0,0,-9.9626,177.75382,110.04221)"/>
<use xlink:href="#font_1_3" transform="matrix(9.9626,0,0,-9.9626,187.01569,82.555)"/>
<use xlink:href="#font_2_1" transform="matrix(9.9626,0,0,-9.9626,201.8999,80.2636)"/>
<use xlink:href="#font_1_4" transform="matrix(9.9626,0,0,-9.9626,209.32013,82.555)"/>
<use xlink:href="#font_1_3" transform="matrix(9.9626,0,0,-9.9626,228.52803,82.555)"/>
<path transform="matrix(1,0,0,-1,241.67702,86.142)" stroke-width="1" stroke-linecap="butt" stroke-miterlimit="10" stroke-linejoin="miter" fill="none" stroke="#000000" d="M 0 0 L 0 11.955 "/>
<use xlink:href="#font_1_3" transform="matrix(9.9626,0,0,-9.9626,247.74369,82.555)"/>
<use xlink:href="#font_1_2" transform="matrix(9.9626,0,0,-9.9626,186.51755,94.73018)"/>
<use xlink:href="#font_2_1" transform="matrix(9.9626,0,0,-9.9626,201.8999,92.219608)"/>
<use xlink:href="#font_1_8" transform="matrix(9.9626,0,0,-9.9626,209.24044,94.73018)"/>
<use xlink:href="#font_1_4" transform="matrix(9.9626,0,0,-9.9626,228.13948,94.511)"/>
<path transform="matrix(1,0,0,-1,241.67702,98.097)" stroke-width="1" stroke-linecap="butt" stroke-miterlimit="10" stroke-linejoin="miter" fill="none" stroke="#000000" d="M 0 0 L 0 11.955 "/>
<use xlink:href="#font_1_7" transform="matrix(9.9626,0,0,-9.9626,247.27544,94.73018)"/>
<use xlink:href="#font_1_2" transform="matrix(9.9626,0,0,-9.9626,186.51755,106.68518)"/>
<use xlink:href="#font_1_2" transform="matrix(9.9626,0,0,-9.9626,205.3369,106.68518)"/>
<use xlink:href="#font_2_1" transform="matrix(9.9626,0,0,-9.9626,224.5929,104.17461)"/>
<use xlink:href="#font_1_5" transform="matrix(9.9626,0,0,-9.9626,231.93343,106.68518)"/>
<path transform="matrix(1,0,0,-1,241.67702,110.052)" stroke-width="1" stroke-linecap="butt" stroke-miterlimit="10" stroke-linejoin="miter" fill="none" stroke="#000000" d="M 0 0 L 0 11.955 "/>
<use xlink:href="#font_1_5" transform="matrix(9.9626,0,0,-9.9626,247.27544,106.68517)"/>
<use xlink:href="#font_0_2" transform="matrix(9.9626,0,0,-9.9626,256.88975,92.11917)"/>
<use xlink:href="#font_0_4" transform="matrix(9.9626,0,0,-9.9626,256.88975,110.042209)"/>
<symbol id="font_1_b">
<path d="M .18900001 .37500004 L .18900001 .63400009 C .18900001 .65700009 .18900001 .669 .21100001 .67200008 C .22100002 .674 .25000004 .674 .27 .674 C .36 .674 .47200004 .67 .47200004 .52500006 C .47200004 .45600004 .448 .37500004 .3 .37500004 L .18900001 .37500004 M .40000005 .36200003 C .497 .38600005 .575 .44700004 .575 .52500006 C .575 .62100008 .46100004 .70500007 .314 .70500007 L 0 .70500007 L 0 .674 L .024000004 .674 C .10100001 .674 .103000018 .66300007 .103000018 .62700006 L .103000018 .1 C .103000018 .064 .10100001 .053000004 .024000004 .053000004 L 0 .053000004 L 0 .022000002 C .036000004 .025000003 .10700001 .025000003 .14600002 .025000003 C .18500002 .025000003 .256 .025000003 .29200004 .022000002 L .29200004 .053000004 L .268 .053000004 C .19100002 .053000004 .18900001 .064 .18900001 .1 L .18900001 .35300005 L .30400003 .35300005 C .32000003 .35300005 .36200003 .35300005 .397 .31900005 C .43500004 .28300003 .43500004 .252 .43500004 .185 C .43500004 .120000008 .43500004 .080000009 .47600005 .042000005 C .517 .006000001 .572 0 .602 0 C .68 0 .697 .082 .697 .11000001 C .697 .116000007 .697 .127 .684 .127 C .673 .127 .673 .118 .672 .111 C .666 .040000004 .631 .022000002 .606 .022000002 C .557 .022000002 .549 .07300001 .535 .16600001 L .522 .246 C .504 .31000004 .455 .34300003 .40000005 .36200003 Z "/>
</symbol>
<symbol id="font_1_13">
<path d="M .44300003 .22500003 C .44300003 .35300002 .34300003 .45900003 .222 .45900003 C .097 .45900003 0 .35000003 0 .22500003 C 0 .096 .104 0 .22100002 0 C .342 0 .44300003 .098000008 .44300003 .22500003 M .222 .025000003 C .17900002 .025000003 .135 .046 .10800001 .092 C .083000008 .136 .083000008 .19700001 .083000008 .23300003 C .083000008 .272 .083000008 .32600004 .10700001 .37000004 C .134 .41600005 .18100001 .43700005 .22100002 .43700005 C .26500003 .43700005 .30800004 .41500003 .33400003 .37200005 C .36 .32900004 .36 .27100004 .36 .23300003 C .36 .19700001 .36 .143 .33800004 .09900001 C .316 .054 .272 .025000003 .222 .025000003 Z "/>
</symbol>
<symbol id="font_1_17">
<path d="M .601 .34700004 C .619 .397 .65000006 .41000004 .685 .411 L .685 .44200004 C .66300007 .44000004 .634 .43900005 .61200007 .43900005 C .583 .43900005 .53800007 .441 .519 .44200004 L .519 .411 C .555 .41000004 .577 .39200003 .577 .36300005 C .577 .35700003 .577 .35500003 .572 .34200005 L .481 .086 L .382 .365 C .37800003 .37700004 .377 .37900005 .377 .38400004 C .377 .411 .416 .411 .43600003 .411 L .43600003 .44200004 C .407 .441 .356 .43900005 .33200003 .43900005 C .30200003 .43900005 .273 .44000004 .243 .44200004 L .243 .411 C .28 .411 .296 .40900005 .306 .39600004 C .31100003 .39000003 .322 .36 .329 .34100003 L .243 .09900001 L .148 .36600004 C .143 .37800003 .143 .38000003 .143 .38400004 C .143 .411 .182 .411 .202 .411 L .202 .44200004 C .172 .441 .116000007 .43900005 .09300001 .43900005 C .08900001 .43900005 .036 .44000004 0 .44200004 L 0 .411 C .050000006 .411 .062000008 .40800003 .07400001 .37600003 L .2 .022000002 C .205 .008000001 .208 0 .221 0 C .234 0 .236 .0060000007 .241 .020000002 L .342 .30300004 L .444 .019000002 C .448 .008000001 .451 0 .46400003 0 C .47700004 0 .48000003 .009000001 .48400004 .019000002 L .601 .34700004 Z "/>
</symbol>
<symbol id="font_1_1">
<path d="M .26500003 0 L .26500003 .058 L 0 .058 L 0 0 L .26500003 0 Z "/>
</symbol>
<symbol id="font_1_9">
<path d="M .10300001 .078 C .10300001 .042000005 .101 .031000002 .024000004 .031000002 L 0 .031000002 L 0 0 L .577 0 L .619 .25800003 L .59400007 .25800003 C .56900009 .104 .54600009 .031000002 .374 .031000002 L .24100003 .031000002 C .194 .031000002 .192 .038000004 .192 .071 L .192 .33800004 L .28200004 .33800004 C .37900005 .33800004 .39000003 .30600003 .39000003 .22100002 L .41500003 .22100002 L .41500003 .48600004 L .39000003 .48600004 C .39000003 .4 .37900005 .36900003 .28200004 .36900003 L .192 .36900003 L .192 .609 C .192 .642 .194 .64900007 .24100003 .64900007 L .37000004 .64900007 C .52300009 .64900007 .55 .59400007 .56600007 .455 L .591 .455 L .563 .68 L 0 .68 L 0 .64900007 L .024000004 .64900007 C .101 .64900007 .10300001 .638 .10300001 .60200008 L .10300001 .078 Z "/>
</symbol>
<symbol id="font_1_c">
<path d="M .083000008 .22900002 C .083000008 .39200003 .16500002 .43400003 .218 .43400003 C .227 .43400003 .29 .43300004 .32500003 .397 C .284 .39400003 .278 .36400003 .278 .351 C .278 .32500003 .296 .305 .324 .305 C .35 .305 .37 .32200004 .37 .35200004 C .37 .42000003 .294 .45900003 .21700001 .45900003 C .092 .45900003 0 .351 0 .22700002 C 0 .09900001 .099 0 .215 0 C .349 0 .381 .120000008 .381 .13000001 C .381 .14000002 .37100003 .14000002 .368 .14000002 C .359 .14000002 .35700003 .136 .35500003 .13000001 C .326 .037 .261 .025000003 .224 .025000003 C .171 .025000003 .083000008 .068 .083000008 .22900002 Z "/>
</symbol>
<symbol id="font_1_f">
<path d="M .07800001 .076000008 C .07800001 .031000002 .067 .031000002 0 .031000002 L 0 0 C .035 .001 .08600001 .003 .113000009 .003 C .139 .003 .191 .001 .225 0 L .225 .031000002 C .158 .031000002 .147 .031000002 .147 .076000008 L .147 .26000003 C .147 .36400003 .218 .42000003 .282 .42000003 C .345 .42000003 .356 .36600004 .356 .30900003 L .356 .076000008 C .356 .031000002 .345 .031000002 .278 .031000002 L .278 0 C .31300003 .001 .36400003 .003 .391 .003 C .41700004 .003 .46900005 .001 .503 0 L .503 .031000002 C .451 .031000002 .42600004 .031000002 .425 .061000006 L .425 .252 C .425 .33800004 .425 .36900003 .39400003 .40500004 C .38000003 .42200003 .347 .44200004 .289 .44200004 C .20500002 .44200004 .161 .38200004 .14400001 .344 L .14400001 .694 L 0 .683 L 0 .652 C .07000001 .652 .07800001 .64500007 .07800001 .596 L .07800001 .076000008 Z "/>
</symbol>
<symbol id="font_1_e">
<path d="M .08400001 .263 C .09 .41200004 .17400001 .43700005 .20800002 .43700005 C .31100003 .43700005 .321 .30200003 .321 .263 L .08400001 .263 M .083000008 .24200002 L .36200003 .24200002 C .38400004 .24200002 .38700003 .24200002 .38700003 .263 C .38700003 .36200003 .33300004 .45900003 .20800002 .45900003 C .09200001 .45900003 0 .35600005 0 .23100002 C 0 .097 .105000007 0 .22000002 0 C .342 0 .38700003 .111 .38700003 .13000001 C .38700003 .14000002 .379 .14200002 .374 .14200002 C .365 .14200002 .36300005 .136 .36100004 .128 C .326 .025000003 .236 .025000003 .22600001 .025000003 C .17600002 .025000003 .136 .055000005 .113000009 .092 C .083000008 .14000002 .083000008 .20600002 .083000008 .24200002 Z "/>
</symbol>
<symbol id="font_1_10">
<path d="M .144 .694 L 0 .683 L 0 .652 C .07000001 .652 .07800001 .64500007 .07800001 .596 L .07800001 .076000008 C .07800001 .031000002 .067 .031000002 0 .031000002 L 0 0 C .033 .001 .086 .003 .11100001 .003 C .136 .003 .185 .001 .22200004 0 L .22200004 .031000002 C .155 .031000002 .144 .031000002 .144 .076000008 L .144 .694 Z "/>
</symbol>
<symbol id="font_1_12">
<path d="M .07800001 .344 L .07800001 .076000008 C .07800001 .031000002 .067 .031000002 0 .031000002 L 0 0 C .035 .001 .08600001 .003 .113000009 .003 C .139 .003 .191 .001 .225 0 L .225 .031000002 C .158 .031000002 .147 .031000002 .147 .076000008 L .147 .26000003 C .147 .36400003 .218 .42000003 .282 .42000003 C .345 .42000003 .356 .36600004 .356 .30900003 L .356 .076000008 C .356 .031000002 .345 .031000002 .278 .031000002 L .278 0 C .31300003 .001 .36400003 .003 .391 .003 C .41700004 .003 .46900005 .001 .503 0 L .503 .031000002 C .451 .031000002 .42600004 .031000002 .425 .061000006 L .425 .252 C .425 .33800004 .425 .36900003 .39400003 .40500004 C .38000003 .42200003 .347 .44200004 .289 .44200004 C .216 .44200004 .169 .39900003 .141 .337 L .141 .44200004 L 0 .43100003 L 0 .4 C .07000001 .4 .07800001 .393 .07800001 .344 Z "/>
</symbol>
<symbol id="font_1_a">
<path d="M .549 .68 L 0 .68 L 0 .64900007 L .024000004 .64900007 C .101 .64900007 .10300001 .638 .10300001 .60200008 L .10300001 .078 C .10300001 .042000005 .101 .031000002 .024000004 .031000002 L 0 .031000002 L 0 0 C .035000005 .003 .11300001 .003 .15200001 .003 C .19300002 .003 .284 .003 .32000003 0 L .32000003 .031000002 L .28700004 .031000002 C .192 .031000002 .192 .044000005 .192 .079 L .192 .32500003 L .27800004 .32500003 C .374 .32500003 .38400004 .293 .38400004 .208 L .40900005 .208 L .40900005 .47300003 L .38400004 .47300003 C .38400004 .38900004 .374 .356 .27800004 .356 L .192 .356 L .192 .609 C .192 .642 .194 .64900007 .24100003 .64900007 L .36100004 .64900007 C .51100006 .64900007 .536 .59300008 .55200007 .455 L .577 .455 L .549 .68 Z "/>
</symbol>
<symbol id="font_1_14">
<path d="M .13900002 .33200003 L .13900002 .44200004 L 0 .43100003 L 0 .4 C .07000001 .4 .07800001 .393 .07800001 .344 L .07800001 .076000008 C .07800001 .031000002 .067 .031000002 0 .031000002 L 0 0 C .039 .001 .08600001 .003 .11400001 .003 C .15400002 .003 .20100002 .003 .24100003 0 L .24100003 .031000002 L .22000002 .031000002 C .14600002 .031000002 .14400001 .042000005 .14400001 .078 L .14400001 .23200001 C .14400001 .33100004 .18600002 .42000003 .26200003 .42000003 C .26900003 .42000003 .27100004 .42000003 .27300004 .41900004 C .27 .418 .25000004 .40600003 .25000004 .38000003 C .25000004 .35200004 .27100004 .337 .293 .337 C .31100003 .337 .33600004 .349 .33600004 .381 C .33600004 .41300003 .305 .44200004 .26200003 .44200004 C .18900001 .44200004 .15300001 .37500004 .13900002 .33200003 Z "/>
</symbol>
<symbol id="font_1_11">
<path d="M .07800001 .344 L .07800001 .076000008 C .07800001 .031000002 .067 .031000002 0 .031000002 L 0 0 C .035 .001 .08600001 .003 .113000009 .003 C .139 .003 .191 .001 .225 0 L .225 .031000002 C .158 .031000002 .147 .031000002 .147 .076000008 L .147 .26000003 C .147 .36400003 .218 .42000003 .282 .42000003 C .345 .42000003 .356 .36600004 .356 .30900003 L .356 .076000008 C .356 .031000002 .345 .031000002 .278 .031000002 L .278 0 C .31300003 .001 .36400003 .003 .391 .003 C .41700004 .003 .46900005 .001 .503 0 L .503 .031000002 C .43600003 .031000002 .425 .031000002 .425 .076000008 L .425 .26000003 C .425 .36400003 .496 .42000003 .56 .42000003 C .623 .42000003 .634 .36600004 .634 .30900003 L .634 .076000008 C .634 .031000002 .623 .031000002 .556 .031000002 L .556 0 C .591 .001 .642 .003 .669 .003 C .69500008 .003 .74700006 .001 .781 0 L .781 .031000002 C .72900006 .031000002 .70400008 .031000002 .703 .061000006 L .703 .252 C .703 .33800004 .703 .36900003 .67200008 .40500004 C .65800008 .42200003 .625 .44200004 .56700006 .44200004 C .48300005 .44200004 .439 .38200004 .42200003 .344 C .40800003 .43100003 .33400003 .44200004 .289 .44200004 C .216 .44200004 .169 .39900003 .141 .337 L .141 .44200004 L 0 .43100003 L 0 .4 C .07000001 .4 .07800001 .393 .07800001 .344 Z "/>
</symbol>
<symbol id="font_1_15">
<path d="M .17500001 .20500002 C .197 .20100002 .279 .18500002 .279 .113000009 C .279 .062000004 .24400002 .022000002 .16600001 .022000002 C .082 .022000002 .046000005 .079 .027000003 .16400002 C .024000004 .17700002 .023000002 .18100001 .013000004 .18100001 C 0 .18100001 0 .17400001 0 .15600002 L 0 .024 C 0 .0070000009 0 0 .011000004 0 C .016000003 0 .017 .0010000002 .036000007 .020000002 C .038000004 .022000002 .038000004 .024 .056 .043 C .1 .0010000002 .14500001 0 .16600001 0 C .28100003 0 .32700003 .067 .32700003 .13900002 C .32700003 .19200002 .29700003 .22200002 .28500004 .23400001 C .25200004 .26600004 .213 .27400003 .171 .28200004 C .115 .293 .048 .30600003 .048 .36400003 C .048 .39900003 .07400001 .44000004 .16 .44000004 C .27 .44000004 .27500005 .35000003 .277 .31900005 C .27800004 .31000004 .28700004 .31000004 .28900004 .31000004 C .30200003 .31000004 .30200003 .31500004 .30200003 .33400003 L .30200003 .43500004 C .30200003 .45200003 .30200003 .45900003 .291 .45900003 C .286 .45900003 .284 .45900003 .27100004 .44700004 C .26800005 .44300003 .25800003 .43400003 .254 .43100003 C .21600002 .45900003 .17500001 .45900003 .16 .45900003 C .038000004 .45900003 0 .39200003 0 .33600004 C 0 .30100004 .016000003 .27300004 .043000007 .25100003 C .075 .22500003 .10300001 .21900001 .17500001 .20500002 Z "/>
</symbol>
<use xlink:href="#font_1_b" transform="matrix(9.9626,0,0,-9.9626,123.01569,85.891178)" fill="#929292"/>
<use xlink:href="#font_1_13" transform="matrix(9.9626,0,0,-9.9626,130.27843,85.781589)" fill="#929292"/>
<use xlink:href="#font_1_17" transform="matrix(9.9626,0,0,-9.9626,134.88115,85.781589)" fill="#929292"/>
<use xlink:href="#font_1_1" transform="matrix(9.9626,0,0,-9.9626,142.00441,83.80899)" fill="#929292"/>
<use xlink:href="#font_1_9" transform="matrix(9.9626,0,0,-9.9626,117.18477,95.578998)" fill="#929292"/>
<use xlink:href="#font_1_c" transform="matrix(9.9626,0,0,-9.9626,123.97926,95.68858)" fill="#929292"/>
<use xlink:href="#font_1_f" transform="matrix(9.9626,0,0,-9.9626,128.10379,95.578998)" fill="#929292"/>
<use xlink:href="#font_1_e" transform="matrix(9.9626,0,0,-9.9626,133.60314,95.68858)" fill="#929292"/>
<use xlink:href="#font_1_10" transform="matrix(9.9626,0,0,-9.9626,138.07636,95.578998)" fill="#929292"/>
<use xlink:href="#font_1_13" transform="matrix(9.9626,0,0,-9.9626,140.79615,95.68858)" fill="#929292"/>
<use xlink:href="#font_1_12" transform="matrix(9.9626,0,0,-9.9626,145.81729,95.578998)" fill="#929292"/>
<use xlink:href="#font_1_a" transform="matrix(9.9626,0,0,-9.9626,120.87877,105.37499)" fill="#929292"/>
<use xlink:href="#font_1_13" transform="matrix(9.9626,0,0,-9.9626,126.50764,105.48458)" fill="#929292"/>
<use xlink:href="#font_1_14" transform="matrix(9.9626,0,0,-9.9626,131.48892,105.37499)" fill="#929292"/>
<use xlink:href="#font_1_11" transform="matrix(9.9626,0,0,-9.9626,135.43412,105.37499)" fill="#929292"/>
<use xlink:href="#font_1_15" transform="matrix(9.9626,0,0,-9.9626,143.74292,105.48458)" fill="#929292"/>
<use xlink:href="#font_0_1" transform="matrix(9.9626,0,0,-9.9626,96.58881,162.98519)"/>
<use xlink:href="#font_0_3" transform="matrix(9.9626,0,0,-9.9626,96.58881,180.90822)"/>
<use xlink:href="#font_1_3" transform="matrix(9.9626,0,0,-9.9626,105.85068,153.422)"/>
<use xlink:href="#font_1_2" transform="matrix(9.9626,0,0,-9.9626,120.29645,153.64118)"/>
<use xlink:href="#font_1_2" transform="matrix(9.9626,0,0,-9.9626,135.24034,153.64118)"/>
<path transform="matrix(1,0,0,-1,145.014,157.008)" stroke-width="1" stroke-linecap="butt" stroke-miterlimit="10" stroke-linejoin="miter" fill="none" stroke="#000000" d="M 0 0 L 0 11.955 "/>
<use xlink:href="#font_1_2" transform="matrix(9.9626,0,0,-9.9626,154.45754,153.64118)"/>
<use xlink:href="#font_1_2" transform="matrix(9.9626,0,0,-9.9626,105.35255,165.59618)"/>
<use xlink:href="#font_1_3" transform="matrix(9.9626,0,0,-9.9626,120.79458,165.377)"/>
<use xlink:href="#font_1_2" transform="matrix(9.9626,0,0,-9.9626,135.24034,165.59618)"/>
<path transform="matrix(1,0,0,-1,145.014,168.963)" stroke-width="1" stroke-linecap="butt" stroke-miterlimit="10" stroke-linejoin="miter" fill="none" stroke="#000000" d="M 0 0 L 0 11.955 "/>
<use xlink:href="#font_2_1" transform="matrix(9.9626,0,0,-9.9626,151.0219,163.0856)"/>
<use xlink:href="#font_1_3" transform="matrix(9.9626,0,0,-9.9626,158.82968,165.377)"/>
<use xlink:href="#font_1_2" transform="matrix(9.9626,0,0,-9.9626,105.35255,177.55118)"/>
<use xlink:href="#font_1_2" transform="matrix(9.9626,0,0,-9.9626,120.29645,177.55118)"/>
<use xlink:href="#font_1_3" transform="matrix(9.9626,0,0,-9.9626,135.73848,177.332)"/>
<path transform="matrix(1,0,0,-1,145.014,180.919)" stroke-width="1" stroke-linecap="butt" stroke-miterlimit="10" stroke-linejoin="miter" fill="none" stroke="#000000" d="M 0 0 L 0 11.955 "/>
<use xlink:href="#font_2_1" transform="matrix(9.9626,0,0,-9.9626,151.0219,175.0406)"/>
<use xlink:href="#font_1_3" transform="matrix(9.9626,0,0,-9.9626,158.82968,177.332)"/>
<use xlink:href="#font_0_2" transform="matrix(9.9626,0,0,-9.9626,167.97574,162.98517)"/>
<use xlink:href="#font_0_4" transform="matrix(9.9626,0,0,-9.9626,167.97574,180.90822)"/>
<symbol id="font_1_d">
<path d="M .34600003 .06600001 L .34600003 0 L .493 .011000001 L .493 .042000005 C .423 .042000005 .41500003 .049000004 .41500003 .098000008 L .41500003 .705 L .271 .694 L .271 .663 C .34100003 .663 .349 .656 .349 .607 L .349 .39100004 C .32 .42700003 .277 .45300005 .22299999 .45300005 C .10500001 .45300005 0 .35500003 0 .22600001 C 0 .09900001 .098 0 .21200001 0 C .276 0 .321 .034 .34600003 .06600001 M .34600003 .33400003 L .34600003 .12900001 C .34600003 .111 .34600003 .109000008 .335 .092 C .305 .044 .26 .022000002 .21700001 .022000002 C .17200002 .022000002 .136 .048 .11200001 .086 C .086 .127 .083000008 .18400002 .083000008 .22500003 C .083000008 .26200003 .085 .32200004 .114 .367 C .13500002 .39800004 .17300001 .43100003 .227 .43100003 C .262 .43100003 .30400003 .41600005 .335 .37100003 C .34600003 .35400004 .34600003 .35200004 .34600003 .33400003 Z "/>
</symbol>
<symbol id="font_1_16">
<path d="M .35900004 .09 L .35900004 0 L .503 .011000001 L .503 .042000005 C .43300004 .042000005 .425 .049000004 .425 .098000008 L .425 .45300005 L .278 .44200004 L .278 .411 C .34800003 .411 .356 .404 .356 .35500003 L .356 .17700002 C .356 .09 .308 .022000002 .23500002 .022000002 C .15100001 .022000002 .147 .069000009 .147 .12100001 L .147 .45300005 L 0 .44200004 L 0 .411 C .07800001 .411 .07800001 .40800003 .07800001 .31900005 L .07800001 .16900002 C .07800001 .091000009 .07800001 0 .23000002 0 C .286 0 .33 .028 .35900004 .09 Z "/>
</symbol>
<use xlink:href="#font_1_b" transform="matrix(9.9626,0,0,-9.9626,72.566699,195.01018)" fill="#929292"/>
<use xlink:href="#font_1_e" transform="matrix(9.9626,0,0,-9.9626,79.82943,194.90059)" fill="#929292"/>
<use xlink:href="#font_1_d" transform="matrix(9.9626,0,0,-9.9626,84.3126,194.90059)" fill="#929292"/>
<use xlink:href="#font_1_16" transform="matrix(9.9626,0,0,-9.9626,89.83188,194.90059)" fill="#929292"/>
<use xlink:href="#font_1_c" transform="matrix(9.9626,0,0,-9.9626,95.391017,194.90059)" fill="#929292"/>
<use xlink:href="#font_1_e" transform="matrix(9.9626,0,0,-9.9626,99.75463,194.90059)" fill="#929292"/>
<use xlink:href="#font_1_d" transform="matrix(9.9626,0,0,-9.9626,104.2378,194.90059)" fill="#929292"/>
<use xlink:href="#font_1_b" transform="matrix(9.9626,0,0,-9.9626,113.104518,195.01018)" fill="#929292"/>
<use xlink:href="#font_1_13" transform="matrix(9.9626,0,0,-9.9626,120.36725,194.90059)" fill="#929292"/>
<use xlink:href="#font_1_17" transform="matrix(9.9626,0,0,-9.9626,124.979938,194.90059)" fill="#929292"/>
<use xlink:href="#font_1_1" transform="matrix(9.9626,0,0,-9.9626,132.1032,192.928)" fill="#929292"/>
<use xlink:href="#font_1_9" transform="matrix(9.9626,0,0,-9.9626,135.63993,194.791)" fill="#929292"/>
<use xlink:href="#font_1_c" transform="matrix(9.9626,0,0,-9.9626,142.43442,194.90059)" fill="#929292"/>
<use xlink:href="#font_1_f" transform="matrix(9.9626,0,0,-9.9626,146.55895,194.791)" fill="#929292"/>
<use xlink:href="#font_1_e" transform="matrix(9.9626,0,0,-9.9626,152.05829,194.90059)" fill="#929292"/>
<use xlink:href="#font_1_10" transform="matrix(9.9626,0,0,-9.9626,156.53151,194.791)" fill="#929292"/>
<use xlink:href="#font_1_13" transform="matrix(9.9626,0,0,-9.9626,159.2513,194.90059)" fill="#929292"/>
<use xlink:href="#font_1_12" transform="matrix(9.9626,0,0,-9.9626,164.27245,194.791)" fill="#929292"/>
<use xlink:href="#font_1_a" transform="matrix(9.9626,0,0,-9.9626,173.13916,194.791)" fill="#929292"/>
<use xlink:href="#font_1_13" transform="matrix(9.9626,0,0,-9.9626,178.76804,194.90059)" fill="#929292"/>
<use xlink:href="#font_1_14" transform="matrix(9.9626,0,0,-9.9626,183.74933,194.791)" fill="#929292"/>
<use xlink:href="#font_1_11" transform="matrix(9.9626,0,0,-9.9626,187.69452,194.791)" fill="#929292"/>
<path transform="matrix(1,0,0,-1,133.945,21.253998)" stroke-width="1" stroke-linecap="butt" stroke-miterlimit="10" stroke-linejoin="miter" fill="none" stroke="#000000" d="M -51.87253 0 C -75.12326 0 -85.04042 -26.16331 -85.04042 -47.27208 "/>
<path transform="matrix(0,1,1,0,48.904588,68.52608)" d="M 2.14195 0 L -1.28517 1.71356 L 0 0 L -1.28517 -1.71356 "/>
<path transform="matrix(1,0,0,-1,133.945,21.253998)" stroke-width="1" stroke-linecap="butt" stroke-miterlimit="10" stroke-linejoin="miter" fill="none" stroke="#000000" d="M 0 -21.45296 C 0 -36.5271 -20.60875 -39.01707 -20.60875 -51.94925 "/>
<path transform="matrix(0,1,1,0,113.33626,73.20325)" d="M 2.14195 0 L -1.28517 1.71356 L 0 0 L -1.28517 -1.71356 "/>
<path transform="matrix(1,0,0,-1,133.945,21.253998)" stroke-width="1" stroke-linecap="butt" stroke-miterlimit="10" stroke-linejoin="miter" fill="none" stroke="#000000" d="M 0 -21.45296 C 0 -36.5271 20.60875 -39.01707 20.60875 -51.94925 "/>
<path transform="matrix(0,1,1,0,154.55376,73.20325)" d="M 2.14195 0 L -1.28517 1.71356 L 0 0 L -1.28517 -1.71356 "/>
<path transform="matrix(1,0,0,-1,133.945,21.253998)" stroke-width="1" stroke-linecap="butt" stroke-miterlimit="10" stroke-linejoin="miter" fill="none" stroke="#000000" d="M 0 -21.45296 C 0 -34.18086 0 -41.3633 0 -51.94925 "/>
<path transform="matrix(0,1,1,0,133.945,73.20325)" d="M 2.14195 0 L -1.28517 1.71356 L 0 0 L -1.28517 -1.71356 "/>
<path transform="matrix(1,0,0,-1,133.945,21.253998)" stroke-width="1" stroke-linecap="butt" stroke-miterlimit="10" stroke-linejoin="miter" fill="none" stroke="#000000" d="M 51.87253 0 C 75.12326 0 85.04042 -26.16331 85.04042 -47.27208 "/>
<path transform="matrix(0,1,1,0,218.98543,68.52608)" d="M 2.14195 0 L -1.28517 1.71356 L 0 0 L -1.28517 -1.71356 "/>
<path transform="matrix(1,0,0,-1,133.945,21.253998)" stroke-width="1" stroke-linecap="butt" stroke-miterlimit="10" stroke-linejoin="miter" fill="none" stroke="#0000ff" d="M -85.04042 -92.31998 C -85.04042 -117.33205 -69.13576 -141.73404 -46.26564 -141.73404 "/>
<path transform="matrix(1,0,0,-1,87.67937,162.98804)" d="M 2.14195 0 L -1.28517 1.71356 L 0 0 L -1.28517 -1.71356 " fill="#0000ff"/>
<path transform="matrix(1,0,0,-1,133.945,21.253998)" stroke-width="1" stroke-linecap="butt" stroke-miterlimit="10" stroke-linejoin="miter" fill="none" stroke="#ff0000" d="M 85.04042 -92.31998 C 85.04042 -117.33205 69.13576 -141.73404 46.26564 -141.73404 "/>
<path transform="matrix(-1,0,0,1,180.21065,162.98804)" d="M 2.14195 0 L -1.28517 1.71356 L 0 0 L -1.28517 -1.71356 " fill="#ff0000"/>
</svg>
